control3min_grf.mot
version=1
nRows=20
nColumns 19
inDegrees=yes
endheader
time	1_ground_force_vx	1_ground_force_vy	1_ground_force_vz	1_ground_force_px	1_ground_force_py	1_ground_force_pz	1_ground_torque_x	1_ground_torque_y	1_ground_torque_z	2_ground_force_vx	2_ground_force_vy	2_ground_force_vz	2_ground_force_px	2_ground_force_py	2_ground_force_pz	2_ground_torque_x	2_ground_torque_y	2_ground_torque_z
            2.502500	           31.133268	          959.577854	         -126.197138	           -0.217273	            0.005945	           -0.339918	            0.133558	            4.116473	           -0.541370	           -2.342474	          911.071416	          133.899902	           -0.198896	            0.005860	           -0.724249	           -0.005900	            2.294602	            0.337237
            2.503000	           32.187726	          966.065459	         -125.667509	           -0.217510	            0.005946	           -0.340112	            0.143180	            4.297320	           -0.559003	           -2.364345	          917.147862	          134.062362	           -0.198997	            0.005859	           -0.724113	           -0.005674	            2.200856	            0.321706
            2.503500	           33.149780	          973.995959	         -125.314908	           -0.217776	            0.005947	           -0.340244	            0.151171	            4.441659	           -0.571466	           -2.384763	          922.854900	          134.505091	           -0.198959	            0.005859	           -0.724079	           -0.005370	            2.078241	            0.302901
            2.504000	           33.974531	          979.403166	         -125.064491	           -0.218201	            0.005948	           -0.340543	            0.157615	            4.543668	           -0.580202	           -2.593410	          928.746802	          134.573133	           -0.199093	            0.005859	           -0.724107	           -0.005552	            1.988199	            0.288085
            2.504500	           34.935641	          987.515413	         -125.077934	           -0.218546	            0.005948	           -0.340591	            0.168213	            4.754827	           -0.602243	           -2.472737	          934.271273	          134.733561	           -0.199174	            0.005858	           -0.723931	           -0.005030	            1.900613	            0.274092
            2.505000	           35.623580	          994.002554	         -124.455691	           -0.218960	            0.005948	           -0.340679	            0.175843	            4.906534	           -0.614331	           -2.446429	          939.979606	          134.894687	           -0.199273	            0.005858	           -0.723998	           -0.004592	            1.764357	            0.253200
            2.505500	           36.265521	          998.868173	         -124.023730	           -0.219201	            0.005950	           -0.340970	            0.182193	            5.018186	           -0.623079	           -2.559258	          945.318360	          135.242301	           -0.199354	            0.005857	           -0.723882	           -0.004702	            1.736806	            0.248477
            2.506000	           36.585706	         1005.897583	         -123.765090	           -0.219625	            0.005950	           -0.341155	            0.188887	            5.193316	           -0.638983	           -2.532888	          951.026069	          135.544203	           -0.199408	            0.005857	           -0.723909	           -0.004190	            1.573243	            0.224225
            2.506500	           37.089688	         1011.845102	         -123.419838	           -0.219733	            0.005951	           -0.341261	            0.193787	            5.286709	           -0.644847	           -2.691903	          956.180574	          135.891150	           -0.199498	            0.005856	           -0.723637	           -0.004283	            1.521200	            0.216191
            2.507000	           38.098485	         1017.971909	         -122.845790	           -0.219995	            0.005952	           -0.341537	            0.205458	            5.489732	           -0.662484	           -2.477469	          961.704880	          136.192346	           -0.199505	            0.005856	           -0.723781	           -0.003485	            1.352772	            0.191573
            2.507500	           38.649759	         1024.097178	         -121.903756	           -0.220244	            0.005952	           -0.341560	            0.213100	            5.646483	           -0.672131	           -2.779151	          967.412365	          136.259770	           -0.199512	            0.005856	           -0.723556	           -0.003704	            1.289514	            0.181628
            2.508000	           39.428031	         1029.865708	         -121.880956	           -0.220630	            0.005953	           -0.341811	            0.223839	            5.846693	           -0.691935	           -2.752761	          973.119907	          136.608608	           -0.199710	            0.005855	           -0.723546	           -0.003001	            1.060898	            0.148931
            2.508500	           40.070362	         1035.091011	         -121.264009	           -0.220830	            0.005953	           -0.341887	            0.229156	            5.919516	           -0.693489	           -2.962696	          979.379756	          136.771805	           -0.199771	            0.005855	           -0.723694	           -0.002947	            0.974196	            0.136048
            2.509000	           40.758189	         1040.316913	         -120.784733	           -0.220955	            0.005953	           -0.341945	            0.239899	            6.123210	           -0.710928	           -3.348691	          982.508141	          137.017782	           -0.199786	            0.005854	           -0.723376	           -0.003029	            0.888730	            0.123940
            2.509500	           41.171450	         1045.361801	         -120.122139	           -0.221259	            0.005954	           -0.342192	            0.246603	            6.261373	           -0.719492	           -3.277629	          988.769842	          136.946211	           -0.199987	            0.005854	           -0.723466	           -0.002406	            0.725679	            0.100508
            2.510000	           41.767220	         1050.768449	         -119.779434	           -0.221322	            0.005955	           -0.342277	            0.254858	            6.411657	           -0.730879	           -3.437453	          994.109597	          136.965325	           -0.199937	            0.005854	           -0.723416	           -0.002129	            0.615628	            0.084819
            2.510500	           41.722734	         1054.550511	         -118.937689	           -0.221692	            0.005955	           -0.342446	            0.254896	            6.442541	           -0.726623	           -3.362924	          999.449362	          137.218988	           -0.200051	            0.005853	           -0.723366	           -0.001566	            0.465298	            0.063883
            2.511000	           42.640820	         1059.053699	         -118.095227	           -0.221847	            0.005956	           -0.342542	            0.268410	            6.666394	           -0.743371	           -3.848724	         1004.235740	          137.189335	           -0.200107	            0.005852	           -0.723256	           -0.001693	            0.441825	            0.060358
            2.511500	           42.916663	         1062.836806	         -117.483554	           -0.221949	            0.005957	           -0.342716	            0.271234	            6.717137	           -0.742497	           -3.632501	         1009.209237	          137.019264	           -0.200203	            0.005852	           -0.723204	           -0.000919	            0.255385	            0.034673
            2.512000	           43.008360	         1067.161824	         -117.144235	           -0.222036	            0.005957	           -0.342766	            0.275425	            6.834087	           -0.750190	           -3.974551	         1013.076362	          136.704713	           -0.200127	            0.005851	           -0.722940	           -0.000624	            0.159054	            0.021463
